<svg height="200" width="1080" id="Layer_1" data-name="Layer 1" xmlns="http://www.w3.org/2000/svg" xmlns:xlink="http://www.w3.org/1999/xlink" viewBox="0 0 1080 200"><defs><style>.cls-1{fill:none;}.cls-2{fill:#fff;}.cls-3{clip-path:url(#clip-path);}.cls-4{clip-path:url(#clip-path-2);}</style><clipPath id="clip-path"><polygon class="cls-1" points="600.18 64.44 569.07 151.33 554.72 151.33 592.4 47.69 608.11 47.69 645.65 151.33 631.29 151.33 600.18 64.44"/></clipPath><clipPath id="clip-path-2"><polygon class="cls-1" points="380.89 64.68 349.78 151.57 335.43 151.57 373.11 47.93 388.82 47.93 426.36 151.57 412 151.57 380.89 64.68"/></clipPath></defs><path class="cls-2" d="M239.57,47.09v66q0,13.9,6.8,20.64t18.92,6.73q12,0,18.77-6.73t6.81-20.64v-66h13.61V112.9q0,13-5.24,21.91A32.86,32.86,0,0,1,285.11,148a48.09,48.09,0,0,1-39.93,0,32.42,32.42,0,0,1-14.06-13.23Q226,125.92,226,112.9V47.09Z"/><path class="cls-2" d="M472.51,148.72a30.86,30.86,0,0,1-12.79-10.17,26,26,0,0,1-4.79-15h14.51a19.12,19.12,0,0,0,6.05,12.33q5.31,5,15.48,5,9.72,0,15.34-4.86a15.77,15.77,0,0,0,5.6-12.48,14.18,14.18,0,0,0-3.29-9.72,21,21,0,0,0-8.22-5.69,131.34,131.34,0,0,0-13.31-4.19,117.45,117.45,0,0,1-16.53-5.38,26.54,26.54,0,0,1-10.62-8.45q-4.41-5.76-4.41-15.48a26.73,26.73,0,0,1,4.34-15.1,28.21,28.21,0,0,1,12.18-10.17,42.86,42.86,0,0,1,18-3.59q14.66,0,24,7.32a27.11,27.11,0,0,1,10.55,19.45h-15q-.75-6-6.28-10.55t-14.66-4.56q-8.52,0-13.91,4.41t-5.38,12.34a13.37,13.37,0,0,0,3.21,9.27,20.65,20.65,0,0,0,7.93,5.46q4.71,1.88,13.24,4.27a124.56,124.56,0,0,1,16.6,5.6,27.72,27.72,0,0,1,10.77,8.53q4.48,5.76,4.48,15.63a27.4,27.4,0,0,1-4,14.36,29.7,29.7,0,0,1-12,10.91,39.42,39.42,0,0,1-18.7,4.19A44.57,44.57,0,0,1,472.51,148.72Z"/><path class="cls-2" d="M731.31,151.33l-24.82-42.62H690v42.62h-13.6V47.09h33.65q11.8,0,20,4a28,28,0,0,1,12.19,10.92,30.46,30.46,0,0,1,4,15.7,30.69,30.69,0,0,1-6.21,19q-6.21,8.22-18.62,10.91l26.18,43.67ZM690,97.79h20.05q11.05,0,16.6-5.46t5.53-14.58q0-9.27-5.46-14.36t-16.67-5.08H690Z"/><path class="cls-2" d="M784.1,71.69a50,50,0,0,1,18.77-19.06,51.74,51.74,0,0,1,26.4-6.88q17.06,0,29.76,8.22A47.15,47.15,0,0,1,877.58,77.3h-16.3a32.8,32.8,0,0,0-12.49-14.5q-8.16-5.09-19.52-5.09a38,38,0,0,0-19.59,5.09,35.58,35.58,0,0,0-13.61,14.43q-4.94,9.34-4.94,21.91a45.93,45.93,0,0,0,4.94,21.76,35.58,35.58,0,0,0,13.61,14.43,38,38,0,0,0,19.59,5.09q11.37,0,19.52-5A32.32,32.32,0,0,0,861.28,121h16.3A46.73,46.73,0,0,1,859,144.08q-12.71,8.16-29.76,8.15a52.18,52.18,0,0,1-26.4-6.8,49.72,49.72,0,0,1-18.77-18.92,54.51,54.51,0,0,1-6.87-27.37A55,55,0,0,1,784.1,71.69Z"/><path class="cls-2" d="M993,47.09V151.33h-13.6V104.07h-53.1v47.26H912.72V47.09h13.61V92.86h53.1V47.09Z"/><g class="cls-3"><path class="cls-2" d="M622.92,128.15H577.45l-8.38,23.18H554.72L592.41,47.69h15.7l37.54,103.64H631.29ZM619,117.09,600.18,64.44l-16.53,46.2-2.31,6.45Z"/></g><circle class="cls-2" cx="599.81" cy="122.26" r="5.5"/><g class="cls-4"><path class="cls-2" d="M403.62,128.39H358.16l-8.38,23.18H335.43L373.11,47.93h15.71l37.54,103.64H412Zm-3.88-11.07L380.89,64.68l-16.53,46.2-2.31,6.44Z"/></g><circle class="cls-2" cx="380.52" cy="122.5" r="5.5"/><path class="cls-2" d="M170.15,128.87a42.2,42.2,0,0,1-4.29,3.62l8,8.37a55.7,55.7,0,0,0,4.22-3.69c1.37-1.32,2.66-2.68,3.85-4.08l-8-8.37A43,43,0,0,1,170.15,128.87ZM155.5,49.73a48.28,48.28,0,0,0-26-.55A53.77,53.77,0,0,0,92.19,85.06a48.55,48.55,0,0,0-.46,26.12,53.16,53.16,0,0,0,13.67,24,53.09,53.09,0,0,0,23.42,14.58,48.62,48.62,0,0,0,26.12.55,49.7,49.7,0,0,0,14.34-6.16L161,135.53a35.8,35.8,0,0,1-8.11,3.06,34.91,34.91,0,0,1-19.46-.89,44.58,44.58,0,0,1-18.28-11.95q-8.49-8.82-11.28-18.78a35.1,35.1,0,0,1-.14-19.38,39.8,39.8,0,0,1,27.73-26.67,35.1,35.1,0,0,1,19.36.89q9.84,3.18,18.32,12a44.78,44.78,0,0,1,11.24,18.72,34.93,34.93,0,0,1,.13,19.49,36.31,36.31,0,0,1-3.36,8l8.28,8.6a49.88,49.88,0,0,0,6.79-14.19,48.23,48.23,0,0,0,.45-26,53.45,53.45,0,0,0-13.76-24A53.47,53.47,0,0,0,155.5,49.73Z"/><rect class="cls-2" x="166.43" y="93.33" width="11.2" height="75" transform="translate(-42.65 155.83) rotate(-43.89)"/><rect class="cls-2" x="96.78" y="37.56" width="11.2" height="32.82" transform="translate(-8.82 86.06) rotate(-43.89)"/></svg>
